<?xml version="1.0" encoding="UTF-8"?>
<svg id="Vrstva_1" xmlns="http://www.w3.org/2000/svg" width="595.28" height="841.89" version="1.1" viewBox="0 0 595.28 841.89">
  <!-- Generator: Adobe Illustrator 30.1.0, SVG Export Plug-In . SVG Version: 2.1.1 Build 136)  -->
  <path d="M171.11,22.19L424.61,4.02l-5.77,46.18c.49,2.33-7.22,57.41,71.39,51.79,0,0,29.4,137.86,19.59,191.05-9.81,53.19-42.68,177.74-182.66,189.65-139.95,11.91-149.66-116.22-146.16-137.91,0,0,2.77-28.63,13.64-45.48,11.03-17.11,15.27-26.09,31.47-38.15,19.26-14.34,53.19-27.62,88.08-20.6,0,0,89.92,22.39,80.83,94.48-9.09,72.09-109.25,64.89-129.55,29.9,0-1.4-14.49-23.27,14.24-17.86,0,0,7.33,2.92,12.53,7.48,3.91,3.42,16.93,9.73,26.53,10.15,22.16.93,46.18-12.14,41.65-39.42-4.56-27.28-38.85-51.79-64.04-43.38-25.18,8.39-88.88,63.67-47.94,134.03,0,0,32.07,56.76,141.01,10.85,0,0,91.42-39.58,88.65-225.34l-.93-62.04s-49,1.4-75.58-24.25c-26.58-25.65-28.45-76.51-28.45-76.51,0,0-187.29,11.83-202.02,2.33-16.1-10.41-1.27-17.89,0-18.66l-.03-.08Z" fill="#a68b58"/>
  <g>
    <path d="M145.12,310.84c2.43-3.55,13.74-54.82,112.31-95.43,4.37-1.81,10.09-5.18,14.81-6.94,29.27-10.87-8.88-27.67-47.34-18.17-18.33,4.53-47.19,14.78-71.7,33.57-26.56,20.37-48.35,49.8-56.69,65.77,0,0-62.33,120.9,85.34,232.87,4.61,3.49,32.46,21.66,66.13,29.92,32.2,7.89,69.76,5.9,94.4,6.81,0,0,35.31-1.35,57.85,4.97,24.33,6.83,36.55,22-8.85,38.95,0,0-39.47,10.53-68.36,18.43-44.05,12.04-77.16,30.96-81.53,65.07,0,0-9.45,34.63,71.72,47.6,32.59,5.2,24.74,17.96,7.82,30.7,0,0-39.55,16.18-28.34,52.34,11.21,36.16,38.72,15.17,34.53,7.69-4.19-7.45-16.8-25.42,17.73-45.48,34.53-20.06,41.98-55.52-17.73-70.22-31.89-7.84-43.02-12.94-46.95-17.06-1.76-1.84-2.82-3.36-2.92-4.97-.05-.72-.98-8.49,4.3-14,5.85-6.11,17.57-15.3,79.18-27.57,61.58-12.24,109.88-38.85,100.43-83.63,0,0-8.39-55.99-116.86-43.38-25.7,2.98-71.8-3.52-97.79-12.14-82.75-27.38-133.35-104.7-101.46-195.78v.08Z" fill="#a68b58"/>
    <path d="M211.25,194.76s13.59-5.25,31.16-7.4c19.34-2.36,43.33-1.45,55.42,1.84,21.95,5.98,24.72,12.22,23.86,17.63-.85,5.41-5.69,5.69-22.44,7.09,0,0-24.49.93-48.04,5.77-6.32,1.29-16.85,6.01-22.44,7.82" fill="#a68b58"/>
  </g>
</svg>