<?xml version="1.0" encoding="UTF-8"?>
<svg id="Vrstva_1" xmlns="http://www.w3.org/2000/svg" width="210mm" height="297mm" version="1.1" viewBox="0 0 595.28 841.89">
  <!-- Generator: Adobe Illustrator 30.1.0, SVG Export Plug-In . SVG Version: 2.1.1 Build 136)  -->
  <path d="M248.95,266.88l97.94-7.02-2.23,17.84c.19.9-2.79,22.18,27.58,20.01,0,0,11.36,53.26,7.57,73.81-3.79,20.55-16.49,68.67-70.57,73.27-54.07,4.6-57.82-44.9-56.47-53.28,0,0,1.07-11.06,5.27-17.57,4.26-6.61,5.9-10.08,12.16-14.74,7.44-5.54,20.55-10.67,34.03-7.96,0,0,34.74,8.65,31.23,36.5-3.51,27.85-42.21,25.07-50.05,11.55,0-.54-5.6-8.99,5.5-6.9,0,0,2.83,1.13,4.84,2.89,1.51,1.32,6.54,3.76,10.25,3.92,8.56.36,17.84-4.69,16.09-15.23-1.76-10.54-15.01-20.01-24.74-16.76-9.73,3.24-34.34,24.6-18.52,51.78,0,0,12.39,21.93,54.48,4.19,0,0,35.32-15.29,34.25-87.06l-.36-23.97s-18.93.54-29.2-9.37c-10.27-9.91-10.99-29.56-10.99-29.56,0,0-72.36,4.57-78.05.9-6.22-4.02-.49-6.91,0-7.21Z" fill="#a68b58"/>
  <g>
    <path d="M238.91,378.4c.94-1.37,5.31-21.18,43.39-36.87,1.69-.7,3.9-2,5.72-2.68,11.31-4.2-3.43-10.69-18.29-7.02-7.08,1.75-18.23,5.71-27.7,12.97-10.26,7.87-18.68,19.24-21.9,25.41,0,0-24.08,46.71,32.97,89.97,1.78,1.35,12.54,8.37,25.55,11.56,12.44,3.05,26.95,2.28,36.47,2.63,0,0,13.64-.52,22.35,1.92,9.4,2.64,14.12,8.5-3.42,15.05,0,0-15.25,4.07-26.41,7.12-17.02,4.65-29.81,11.96-31.5,25.14,0,0-3.65,13.38,27.71,18.39,12.59,2.01,9.56,6.94,3.02,11.86,0,0-15.28,6.25-10.95,20.22,4.33,13.97,14.96,5.86,13.34,2.97-1.62-2.88-6.49-9.82,6.85-17.57,13.34-7.75,16.22-21.45-6.85-27.13-12.32-3.03-16.62-5-18.14-6.59-.68-.71-1.09-1.3-1.13-1.92-.02-.28-.38-3.28,1.66-5.41,2.26-2.36,6.79-5.91,30.59-10.65,23.79-4.73,42.45-15.01,38.8-32.31,0,0-3.24-21.63-45.15-16.76-9.93,1.15-27.74-1.36-37.78-4.69-31.97-10.58-51.52-40.45-39.2-75.64Z" fill="#a68b58"/>
    <path d="M264.46,333.55s5.25-2.03,12.04-2.86c7.47-.91,16.74-.56,21.41.71,8.48,2.31,9.55,4.72,9.22,6.81s-2.2,2.2-8.67,2.74c0,0-9.46.36-18.56,2.23-2.44.5-6.51,2.32-8.67,3.02" fill="#a68b58"/>
  </g>
</svg>